{"title":"Captain America Civil War (2016) 1080p Blu-ray x264 DTS FR DDR","uid":15728250,"size":8474043609,"categoryP":"video","categoryS":"hd___movies","magnet":"?xt=urn:btih:3562f87e7d30e8b1c788ae9a4e3894b16320efaa&amp;dn=Captain+America+Civil+War+%282016%29+1080p+Blu-ray+x264+DTS+FR+DDR&amp;tr=udp%3A%2F%2Ftracker.leechers-paradise.org%3A6969&amp;tr=udp%3A%2F%2Fzer0day.ch%3A1337&amp;tr=udp%3A%2F%2Fopen.demonii.com%3A1337&amp;tr=udp%3A%2F%2Ftracker.coppersurfer.tk%3A6969&amp;tr=udp%3A%2F%2Fexodus.desync.com%3A6969","seeders":8,"leechers":9,"uploader":"SaM","files":3,"time":1472746496,"description":"- HollyWooD Movie-\r\n\r\nCaptain America\r\n- CiVil War -\r\n** 2016 **\r\n1080p / Blu-ray / x264\r\nFrench DTS 5.1\r\nEnglish, French &amp; Dutch Subs\r\n\r\nForced &amp; Hearing Impaired subs included\r\n \nhttp://extraimago.com/image/wyZN \nhttp://extraimago.com/image/wyZ2 \nhttp://extraimago.com/image/wyZw \nhttp://extraimago.com/image/wyZa \nhttp://extraimago.com/image/wyZ8 \nhttp://extraimago.com/image/wyKf \nhttp://extraimago.com/image/wyKW \nhttp://extraimago.com/image/wyKA \nhttp://extraimago.com/image/wyKv \nhttp://extraimago.com/image/wyKu \nhttp://extraimago.com/image/wyKV \nhttp://extraimago.com/image/wyK6 \nhttp://extraimago.com/image/wyKx \nhttp://extraimago.com/image/wyKt \nhttp://extraimago.com/image/wyKo\r\n\r\nSOURCE: BD50 @ HDT\r\n\r\nFormat : Matroska\r\nFile size : 7.85 GiB\r\nDuration : 2 h 27 min\r\nOverall bit rate : 7 606 kb/s\r\n\r\nVideo\r\nFormat : AVC\r\nFormat/Info : Advanced Video Codec\r\nFormat profile :   \r\nFormat settings, CABAC : Yes\r\nFormat settings, ReFrames : 5 frames\r\nCodec ID : V_MPEG4/ISO/AVC\r\nDuration : 2 h 27 min\r\nBit rate : 6 075 kb/s\r\nWidth : 1 920 pixels\r\nHeight : 800 pixels\r\nDisplay aspect ratio : 2.40:1\r\nFrame rate mode : Constant\r\nFrame rate : 23.976 (24000/1001) FPS\r\ncolor space : YUV\r\nChroma subsampling : 4:2:0\r\nBit depth : 8 bits\r\nScan type : Progressive\r\nBits/(Pixel*Frame) : 0.165\r\nStream size : 6.27 GiB (80%)\r\n\r\nAudio\r\nFormat : DTS\r\nFormat/Info : Digital Theater Systems\r\nMode : 16\r\nFormat settings, Endianness : Big\r\nCodec ID : A_DTS\r\nDuration : 2 h 27 min\r\nBit rate mode : Constant\r\nBit rate : 1 509 kb/s\r\nChannel(s) : 6 channels\r\nChannel positions : Front: L C R, Side: L R, LFE\r\nSampling rate : 48.0 kHz\r\nFrame rate : 93.750 FPS (512 spf)\r\nBit depth : 24 bits\r\nCompression mode : Lossy\r\nStream size : 1.56 GiB (20%)\r\nLanguage : French\r\nDefault : Yes\r\nForced : No\r\n\r\nChapters = Yes\r\nSample : Included","torrent":{"xt":"urn:btih:3562f87e7d30e8b1c788ae9a4e3894b16320efaa","amp;dn":"Captain+America+Civil+War+%282016%29+1080p+Blu-ray+x264+DTS+FR+DDR","amp;tr":["udp%3A%2F%2Ftracker.leechers-paradise.org%3A6969","udp%3A%2F%2Fzer0day.ch%3A1337","udp%3A%2F%2Fopen.demonii.com%3A1337","udp%3A%2F%2Ftracker.coppersurfer.tk%3A6969","udp%3A%2F%2Fexodus.desync.com%3A6969"],"infoHash":"3562f87e7d30e8b1c788ae9a4e3894b16320efaa","infoHashBuffer":{"type":"Buffer","data":[53,98,248,126,125,48,232,177,199,136,174,154,78,56,148,177,99,32,239,170]},"announce":[],"urlList":[]}}